<?xml version="1.0" encoding="UTF-8"?>
<!DOCTYPE svg PUBLIC "-//W3C//DTD SVG 1.1//EN" "http://www.w3.org/Graphics/SVG/1.1/DTD/svg11.dtd">
<!-- Creator: CorelDRAW 2019 (64-Bit) -->
<svg xmlns="http://www.w3.org/2000/svg" xml:space="preserve" width="2674px" height="548px" version="1.1" style="shape-rendering:geometricPrecision; text-rendering:geometricPrecision; image-rendering:optimizeQuality; fill-rule:evenodd; clip-rule:evenodd"
viewBox="0 0 2488.12 509.37"
 xmlns:xlink="http://www.w3.org/1999/xlink">
 <defs>
  <style type="text/css">
   <![CDATA[
    .fil0 {fill:white;fill-rule:nonzero}
   ]]>
  </style>
 </defs>
 <g id="Capa_x0020_1">
  <metadata id="CorelCorpID_0Corel-Layer"/>
  <path class="fil0" d="M196.56 154.77c-124.16,-2.07 -196.15,79.58 -196.56,140.37l0 208.38 92.02 0 0 -159.1c0,-26.34 7.72,-47.88 23.06,-64.51 15.45,-16.74 36.88,-25.05 64.39,-25.05 7.02,0 15.22,0.35 24.35,1.06l0 -100.92c-1.4,-0.23 -3.86,-0.17 -7.26,-0.23zm376.68 174.2c0,-33.37 -7.02,-63.34 -20.95,-89.68 -13.93,-26.46 -33.72,-47.18 -59.36,-62.16 -25.52,-14.99 -54.91,-22.36 -88.15,-22.36 -24,0 -46.48,4.33 -67.55,12.99 -20.96,8.66 -38.99,20.72 -53.97,36.18 -14.99,15.45 -26.81,34.18 -35.48,56.19 -8.77,22.13 -13.11,45.89 -13.11,71.53 0,35 7.73,66.15 23.19,93.31 15.45,27.27 36.52,48.11 63.33,62.63 26.69,14.51 56.78,21.77 90.14,21.77 32.9,0 61.93,-5.85 87.1,-17.67 25.17,-11.83 45.54,-27.52 61.11,-47.18l-59.7 -55.61c-21.54,26.1 -48.82,38.98 -81.95,38.87 -22.01,-0.24 -40.62,-6.21 -56.08,-17.92 -15.45,-11.59 -25.87,-27.63 -31.37,-47.99l240.34 0c1.64,-5.74 2.46,-16.75 2.46,-32.9zm-165.3 -93.31c19.43,0 35.47,5.27 48,15.92 12.52,10.66 21.3,25.29 26.1,44.14l-151.25 0c5.27,-19.43 14.63,-34.3 28.21,-44.6 13.7,-10.31 29.97,-15.46 48.94,-15.46zm467.82 -75.16l0 38.75 -1.28 0c-25.64,-29.73 -59.36,-44.48 -101.27,-44.48 -22.59,0 -43.9,4.45 -63.92,13.34 -20.02,8.9 -37.11,21.08 -51.51,36.65 -14.28,15.57 -25.52,34.41 -33.72,56.66 -8.19,22.12 -12.41,46.01 -12.41,71.64 0,26.11 4.22,50.11 12.41,72.24 8.2,22.01 19.55,40.62 34.07,55.84 14.52,15.22 31.96,27.04 52.21,35.47 20.26,8.55 42.15,12.76 65.68,12.76 43.9,0 78.09,-15.8 102.55,-47.29l1.64 0 0 41.44 87.45 0 0 -343.02 -91.9 0zm-83 266.57c-25.75,0 -46.94,-8.78 -63.22,-26.1 -16.39,-17.33 -24.58,-39.93 -24.58,-67.55 0,-28.8 8.43,-51.98 25.29,-69.66 16.74,-17.56 37.69,-26.34 62.86,-26.34 24.94,0 45.54,9.13 61.93,27.39 16.39,18.27 24.59,41.09 24.59,68.61 0,27.62 -8.43,50.22 -25.06,67.55 -16.74,17.32 -37.34,26.1 -61.81,26.1zm558.91 20.49l-63.11 -55.49c-8.89,10.07 -20.13,18.38 -33.83,24.82 -13.58,6.55 -28.8,9.83 -45.77,9.83 -27.16,0 -49.29,-8.78 -66.38,-26.46 -16.98,-17.56 -25.52,-40.5 -25.52,-68.6 0,-13.7 2.22,-26.34 6.55,-38.05 4.34,-11.7 10.42,-21.66 18.38,-29.85 7.85,-8.2 17.45,-14.63 28.92,-19.32 11.47,-4.68 23.88,-7.02 37.35,-7.02 32.31,0 58.88,12.17 79.96,36.64l62.04 -53.5c-16.86,-21.31 -38.4,-37.58 -64.39,-48.82 -26.1,-11.35 -53.27,-16.97 -81.36,-16.97 -35.01,0 -66.15,7.37 -93.66,22.24 -27.39,14.87 -48.81,35.82 -64.03,62.75 -15.34,27.04 -23.07,57.83 -23.07,92.6 0,34.54 7.61,65.33 22.83,92.26 15.22,27.04 36.18,47.88 62.99,62.63 26.69,14.75 56.89,22.12 90.49,22.12 32.9,0 62.52,-5.73 88.62,-17.21 26.23,-11.35 47.18,-26.22 62.99,-44.6zm345.61 -335.41c15.57,0 28.92,-5.5 40.16,-16.39 11.24,-11 16.85,-24.23 16.85,-39.8 0,-15.34 -5.61,-28.45 -16.85,-39.45 -11.24,-11.01 -24.59,-16.51 -40.16,-16.51 -15.8,0 -29.15,5.5 -40.27,16.51 -11.12,11 -16.62,24.11 -16.62,39.45 0,10.3 2.45,19.67 7.49,28.21 5.03,8.67 11.94,15.46 20.84,20.49 8.78,5.04 18.26,7.49 28.56,7.49zm-45.89 391.37l91.9 0 0 -343.02 -91.9 0 0 343.02zm396.88 -343.02l-78.9 230.52 -1.06 0 -80.54 -230.52 -97.05 0 135.1 343.02 85.69 0 134.87 -343.02 -98.11 0zm439.85 168.47c0,-33.37 -7.03,-63.34 -20.96,-89.68 -13.93,-26.46 -33.72,-47.18 -59.36,-62.16 -25.51,-14.99 -54.9,-22.36 -88.15,-22.36 -24,0 -46.47,4.33 -67.55,12.99 -20.95,8.66 -38.98,20.72 -53.97,36.18 -14.98,15.45 -26.81,34.18 -35.47,56.19 -8.78,22.13 -13.11,45.89 -13.11,71.53 0,35 7.73,66.15 23.18,93.31 15.45,27.27 36.53,48.11 63.34,62.63 26.69,14.51 56.77,21.77 90.14,21.77 32.89,0 61.93,-5.85 87.1,-17.67 25.17,-11.83 45.54,-27.52 61.11,-47.18l-59.71 -55.61c-21.54,26.1 -48.81,38.98 -81.95,38.87 -22,-0.24 -40.62,-6.21 -56.07,-17.92 -15.46,-11.59 -25.88,-27.63 -31.38,-47.99l240.35 0c1.64,-5.74 2.46,-16.75 2.46,-32.9zm-165.31 -93.31c19.44,0 35.48,5.27 48,15.92 12.53,10.66 21.31,25.29 26.11,44.14l-151.26 0c5.27,-19.43 14.64,-34.3 28.22,-44.6 13.69,-10.31 29.97,-15.46 48.93,-15.46z"/>
  <path class="fil0" d="M1507.27 509.37c20.95,0 38.16,-1.87 51.39,-5.5 13.23,-3.63 26.46,-9.01 39.45,-16.16l-23.65 -73.4c-15.57,8.08 -29.97,12.06 -43.19,12.06 -10.78,0 -18.5,-3.51 -23.18,-10.65 -4.69,-7.14 -7.03,-18.15 -7.03,-33.25l0 -162.71 93.31 0 0 -64.83 -93.31 0 0 -116.53 -91.9 9.95 0 106.34 -40.5 0 0 65.07 40.5 0 0 175.35c0,37.58 8.66,65.91 26.22,85.23 17.45,19.32 41.45,29.03 71.89,29.03z"/>
 </g>
</svg>
